<svg width="14" height="14" viewBox="0 0 14 14" fill="none" xmlns="http://www.w3.org/2000/svg">
<path fill-rule="evenodd" clip-rule="evenodd" d="M13.4 6.99113C13.4 7.42395 13.3559 7.85617 13.2694 8.27748C13.185 8.68879 13.06 9.09259 12.8962 9.47861C12.7362 9.8578 12.5378 10.2232 12.3059 10.564C12.0774 10.9026 11.8143 11.2203 11.5252 11.5099C11.2355 11.7982 10.9167 12.0606 10.5783 12.29C10.2364 12.5203 9.87047 12.7185 9.49106 12.8792C9.10448 13.0421 8.69975 13.1669 8.2888 13.2512C7.86693 13.3379 7.43313 13.3822 6.99969 13.3822C6.56592 13.3822 6.13215 13.3379 5.71088 13.2512C5.2993 13.1669 4.89459 13.0421 4.50832 12.8792C4.12893 12.7185 3.76264 12.5203 3.42076 12.29C3.0823 12.0606 2.76354 11.7982 2.47446 11.5099C2.18508 11.2203 1.92193 10.9026 1.69317 10.564C1.46253 10.2232 1.26376 9.85777 1.10313 9.47861C0.939356 9.09259 0.814055 8.68876 0.72936 8.27748C0.643738 7.85617 0.599976 7.42395 0.599976 6.99113C0.599976 6.55799 0.643713 6.12484 0.729385 5.70446C0.81408 5.29315 0.939381 4.88872 1.10316 4.50333C1.26378 4.12387 1.46256 3.75814 1.69319 3.41734C1.92195 3.07845 2.18511 2.76137 2.47449 2.47146C2.76357 2.1831 3.08233 1.9213 3.42078 1.69225C3.76267 1.46099 4.12895 1.26285 4.50834 1.10181C4.89462 0.938572 5.2993 0.813451 5.7109 0.729829C6.13217 0.643706 6.56594 0.600006 6.99971 0.600006C7.43316 0.600006 7.86693 0.643706 8.28882 0.729829C8.69977 0.813476 9.10448 0.938597 9.49109 1.10181C9.87047 1.26283 10.2364 1.46099 10.5783 1.69225C10.9168 1.9213 11.2356 2.1831 11.5252 2.47146C11.8143 2.76137 12.0775 3.07845 12.3059 3.41734C12.5378 3.75814 12.7362 4.12389 12.8962 4.50333C13.06 4.88872 13.185 5.29315 13.2694 5.70446C13.3559 6.12484 13.4 6.55799 13.4 6.99113ZM4.66766 2.05454C3.14351 2.77325 2.00595 4.17566 1.65124 5.86581C1.79533 5.86706 4.07295 5.89578 6.69713 5.19954C5.75116 3.52124 4.74049 2.15162 4.66766 2.05454ZM7.14997 6.03997C4.33577 6.88126 1.6353 6.82073 1.53844 6.817C1.53686 6.87566 1.53405 6.93244 1.53405 6.99113C1.53405 8.39322 2.06376 9.67144 2.93444 10.6379C2.93256 10.6351 4.42828 7.98536 7.3778 7.03295C7.44904 7.00924 7.52156 6.988 7.59343 6.96741C7.45626 6.65724 7.30653 6.34641 7.14997 6.03997ZM10.6092 2.89495C9.64698 2.04767 8.3835 1.53373 6.99967 1.53373C6.55558 1.53373 6.12461 1.58741 5.71179 1.68664C5.79365 1.7965 6.82028 3.15647 7.75501 4.87031C9.81732 4.09827 10.5958 2.91491 10.6092 2.89495ZM7.96599 7.87178C7.95382 7.8758 7.94165 7.87928 7.92975 7.88363C4.70494 9.00623 3.65184 11.2686 3.64045 11.2933C4.56833 12.0138 5.73214 12.4485 6.99971 12.4485C7.7566 12.4485 8.47757 12.2946 9.13354 12.016C9.0526 11.5392 8.73509 9.86775 7.96599 7.87178ZM10.0539 11.5173C11.2811 10.6904 12.1527 9.3772 12.3959 7.85614C12.2834 7.81995 10.7542 7.33655 8.99006 7.61898C9.70697 9.58627 9.99825 11.1884 10.0539 11.5173ZM8.1757 5.68356C8.30256 5.94384 8.4254 6.20873 8.53883 6.47496C8.57916 6.57046 8.61854 6.66409 8.65697 6.75769C10.5346 6.52176 12.3843 6.91871 12.4634 6.93492C12.4509 5.64112 11.9874 4.4537 11.2206 3.52407C11.2102 3.53871 10.3336 4.80352 8.1757 5.68356Z" fill="white"/>
</svg>
