<svg width="14" height="14" viewBox="0 0 14 14" fill="none" xmlns="http://www.w3.org/2000/svg">
<path fill-rule="evenodd" clip-rule="evenodd" d="M7.00058 0.600006C5.26242 0.600006 5.04429 0.607606 4.36161 0.638673C3.68027 0.669873 3.2152 0.777741 2.80827 0.93601C2.38733 1.09948 2.03026 1.31815 1.67452 1.67402C1.31852 2.02975 1.09985 2.38682 0.935846 2.80763C0.777177 3.2147 0.669176 3.6799 0.638509 4.36098C0.607976 5.04365 0.599976 5.26192 0.599976 7.00007C0.599976 8.73822 0.607709 8.95569 0.638643 9.63837C0.669976 10.3197 0.777844 10.7848 0.935979 11.1917C1.09958 11.6127 1.31825 11.9697 1.67412 12.3255C2.02972 12.6815 2.38679 12.9007 2.80747 13.0641C3.21467 13.2224 3.67987 13.3303 4.36108 13.3615C5.04376 13.3925 5.26176 13.4001 6.99978 13.4001C8.73806 13.4001 8.95553 13.3925 9.6382 13.3615C10.3195 13.3303 10.7851 13.2224 11.1924 13.0641C11.6132 12.9007 11.9697 12.6815 12.3253 12.3255C12.6813 11.9697 12.9 11.6127 13.064 11.1918C13.2213 10.7848 13.3293 10.3196 13.3613 9.6385C13.392 8.95583 13.4 8.73822 13.4 7.00007C13.4 5.26192 13.392 5.04379 13.3613 4.36111C13.3293 3.67977 13.2213 3.2147 13.064 2.80776C12.9 2.38682 12.6813 2.02975 12.3253 1.67402C11.9693 1.31801 11.6133 1.09934 11.192 0.93601C10.7839 0.777741 10.3186 0.669873 9.63727 0.638673C8.9546 0.607606 8.73726 0.600006 6.99858 0.600006H7.00058ZM6.42641 1.75333C6.59681 1.75307 6.78695 1.75333 7.00055 1.75333C8.70937 1.75333 8.9119 1.75947 9.58671 1.79013C10.2107 1.81867 10.5494 1.92294 10.775 2.01054C11.0737 2.12654 11.2866 2.26521 11.5105 2.48921C11.7345 2.71321 11.8731 2.92655 11.9894 3.22522C12.077 3.45055 12.1814 3.78922 12.2098 4.41323C12.2405 5.0879 12.2471 5.29057 12.2471 6.99859C12.2471 8.70661 12.2405 8.90928 12.2098 9.58395C12.1813 10.208 12.077 10.5466 11.9894 10.772C11.8734 11.0706 11.7345 11.2833 11.5105 11.5072C11.2865 11.7312 11.0738 11.8698 10.775 11.9858C10.5497 12.0738 10.2107 12.1778 9.58671 12.2064C8.91203 12.237 8.70937 12.2437 7.00055 12.2437C5.2916 12.2437 5.08906 12.237 4.41439 12.2064C3.79038 12.1776 3.45171 12.0733 3.22598 11.9857C2.92731 11.8697 2.71397 11.731 2.48997 11.507C2.26597 11.283 2.1273 11.0702 2.01103 10.7714C1.92343 10.5461 1.81903 10.2074 1.79063 9.58342C1.75996 8.90874 1.75383 8.70607 1.75383 6.99699C1.75383 5.2879 1.75996 5.0863 1.79063 4.41163C1.81916 3.78762 1.92343 3.44895 2.01103 3.22335C2.12703 2.92468 2.26597 2.71134 2.48997 2.48734C2.71397 2.26334 2.92731 2.12467 3.22598 2.0084C3.45158 1.9204 3.79038 1.8164 4.41439 1.78773C5.00479 1.76107 5.2336 1.75307 6.42641 1.75173V1.75333ZM10.4169 2.81601C9.99285 2.81601 9.64885 3.15962 9.64885 3.58376C9.64885 4.00776 9.99285 4.35176 10.4169 4.35176C10.8409 4.35176 11.1849 4.00776 11.1849 3.58376C11.1849 3.15975 10.8409 2.81601 10.4169 2.81601ZM7.00059 3.71335C5.1855 3.71335 3.71389 5.18497 3.71389 7.00006C3.71389 8.81514 5.1855 10.2861 7.00059 10.2861C8.81567 10.2861 10.2868 8.81514 10.2868 7.00006C10.2868 5.18497 8.81567 3.71335 7.00059 3.71335ZM7.00056 4.8667C8.17871 4.8667 9.13392 5.82178 9.13392 7.00006C9.13392 8.1782 8.17871 9.13341 7.00056 9.13341C5.82228 9.13341 4.86721 8.1782 4.86721 7.00006C4.86721 5.82178 5.82228 4.8667 7.00056 4.8667Z" fill="white"/>
</svg>
